<svg width="339" height="56" viewBox="0 0 339 56" fill="none" xmlns="http://www.w3.org/2000/svg">
<path d="M112.641 55.6964V55.9206H110.248V55.6964H110.835L110.379 54.3979H108.489L108.056 55.6964H108.95V55.9206H107.228V55.6964H107.814L109.574 50.4603H110.286L112.212 55.6964H112.636H112.641ZM110.295 54.1644L109.415 51.6561H109.401L108.568 54.1644H110.295Z" fill="#00599A"/>
<path d="M117.36 55.6356H117.067L115.168 51.4085V55.6964H115.787V55.9206H114.33V55.6964H114.93V50.7265H114.33V50.5023H116.066L117.756 54.0662H117.77L119.268 50.5023H120.813V50.7265H120.404V55.6964H120.813V55.9206H118.775V55.6964H119.184V51.2917L117.365 55.6356H117.36Z" fill="#00599A"/>
<path d="M127.985 55.6964V55.9206H125.593V55.6964H126.18L125.724 54.3979H123.834L123.401 55.6964H124.295V55.9206H122.573V55.6964H123.159L124.918 50.4603H125.63L127.557 55.6964H127.981H127.985ZM125.64 54.1644L124.76 51.6561H124.746L123.913 54.1644H125.64Z" fill="#00599A"/>
<path d="M135.018 50.5023V50.7265H134.329V55.9206H133.612L130.508 51.9643V55.6964H131.22V55.9206H129.67V55.6964H130.271V50.7265H129.67V50.5023H130.983L134.087 54.4586V50.7265H133.375V50.5023H135.018Z" fill="#00599A"/>
<path d="M141.706 55.6964V55.9206H139.314V55.6964H139.9L139.444 54.3979H137.554L137.122 55.6964H138.015V55.9206H136.293V55.6964H136.88L138.639 50.4603H139.351L141.278 55.6964H141.701H141.706ZM139.36 54.1644L138.481 51.6561H138.467L137.634 54.1644H139.36Z" fill="#00599A"/>
<path d="M147.244 50.5023V51.9129H147.044L146.309 50.7265H145.667V55.6964H146.407V55.9206H143.707V55.6964H144.447V50.7265H143.824L143.093 51.9129H142.893V50.5023H147.244Z" fill="#00599A"/>
<path d="M157.474 50.7265V55.6964H157.875V55.9206H155.845V55.6964H156.255V53.2582H154.333V55.6964H154.742V55.9206H152.704V55.6964H153.113V50.7265H152.704V50.5023H154.742V50.7265H154.333V53.0246H156.255V50.7265H155.845V50.5023H157.875V50.7265H157.474Z" fill="#00599A"/>
<path d="M165.065 55.6964V55.9206H162.673V55.6964H163.259L162.803 54.3979H160.914L160.481 55.6964H161.374V55.9206H159.652V55.6964H160.239L161.998 50.4603H162.71L164.637 55.6964H165.061H165.065ZM162.72 54.1644L161.84 51.6561H161.826L160.993 54.1644H162.72Z" fill="#00599A"/>
<path d="M170.604 50.5023V51.9129H170.404L169.668 50.7265H169.026V55.6964H169.766V55.9206H167.067V55.6964H167.807V50.7265H167.183L166.452 51.9129H166.252V50.5023H170.604Z" fill="#00599A"/>
<path d="M172.596 50.7265V50.5023H174.634V50.7265H174.225V55.6964H174.634V55.9206H172.596V55.6964H173.005V50.7265H172.596Z" fill="#00599A"/>
<path d="M185.525 50.5023V50.7265H184.836V55.9206H184.119L181.02 51.9643V55.6964H181.727V55.9206H180.177V55.6964H180.778V50.7265H180.177V50.5023H181.49L184.589 54.4586V50.7265H183.877V50.5023H185.52H185.525Z" fill="#00599A"/>
<path d="M192.441 54.0335C192.441 55.4348 191.668 56 190.119 56C188.569 56 187.796 55.4348 187.796 54.0335V50.7265H187.387V50.5023H189.425V50.7265H189.016V54.3792C189.016 55.4395 189.407 55.7711 190.119 55.7711C190.831 55.7711 191.222 55.4395 191.222 54.3792V50.7265H190.821V50.5023H192.851V50.7265H192.441V54.0335Z" fill="#00599A"/>
<path d="M199.897 55.6964V55.9206H198.152L197.589 54.0289C197.458 53.5898 197.249 53.403 196.825 53.403H196.565V55.6964H197.221V55.9206H194.936V55.6964H195.345V50.7265H194.936V50.5023H197.319C198.575 50.5023 199.208 51.0114 199.208 51.9596C199.208 52.6883 198.785 53.2161 197.868 53.3609C198.468 53.445 198.724 53.6458 198.873 54.0102L199.469 55.6964H199.902H199.897ZM197.128 53.1974C197.682 53.1974 197.928 52.8238 197.928 51.9643C197.928 51.0208 197.682 50.7265 197.128 50.7265H196.565V53.1974H197.128Z" fill="#00599A"/>
<path d="M206.711 55.6964V55.9206H204.318V55.6964H204.905L204.449 54.3979H202.559L202.126 55.6964H203.02V55.9206H201.298V55.6964H201.884L203.644 50.4603H204.356L206.283 55.6964H206.706H206.711ZM204.36 54.1644L203.481 51.6561H203.467L202.634 54.1644H204.36Z" fill="#00599A"/>
<path d="M213.743 50.5023V50.7265H213.059V55.9206H212.342L209.243 51.9643V55.6964H209.95V55.9206H208.4V55.6964H209.001V50.7265H208.4V50.5023H209.713L212.812 54.4586V50.7265H212.1V50.5023H213.743Z" fill="#00599A"/>
<path d="M215.707 50.7265V50.5023H217.746V50.7265H217.336V55.6964H217.746V55.9206H215.707V55.6964H216.117V50.7265H215.707Z" fill="#00599A"/>
<path d="M228.362 55.6964V55.9206H226.617L226.053 54.0289C225.923 53.5898 225.714 53.403 225.29 53.403H225.03V55.6964H225.686V55.9206H223.401V55.6964H223.81V50.7265H223.401V50.5023H225.784C227.04 50.5023 227.673 51.0114 227.673 51.9596C227.673 52.6883 227.25 53.2161 226.333 53.3609C226.933 53.445 227.189 53.6458 227.338 54.0102L227.934 55.6964H228.367H228.362ZM225.593 53.1974C226.147 53.1974 226.393 52.8238 226.393 51.9643C226.393 51.0208 226.147 50.7265 225.593 50.7265H225.03V53.1974H225.593Z" fill="#00599A"/>
<path d="M235.171 55.6964V55.9206H232.779V55.6964H233.365L232.909 54.3979H231.019L230.587 55.6964H231.48V55.9206H229.758V55.6964H230.345L232.104 50.4603H232.816L234.743 55.6964H235.166H235.171ZM232.825 54.1644L231.946 51.6561H231.932L231.099 54.1644H232.825Z" fill="#00599A"/>
<path d="M236.972 50.7266V50.5024H239.011V50.7266H238.601V55.6964H239.011V55.9206H236.972V55.6964H237.382V50.7266H236.972ZM242.306 55.6964V55.9206H239.946V55.6964H240.449L238.62 53.3563L241.166 50.7219H240.025V50.4977H242.068V50.7219H241.468L239.625 52.6323L241.985 55.6917H242.311L242.306 55.6964Z" fill="#00599A"/>
<path d="M248.622 50.5023V50.7265H248.096L246.816 53.5197V55.6964H247.225V55.9206H245.196V55.6964H245.596V53.6692L243.967 50.7265H243.544V50.5023H246.057V50.7265H245.345L246.685 53.2114H246.699L247.84 50.7265H247.062V50.5023H248.612H248.622Z" fill="#00599A"/>
<path d="M254.807 55.6964V55.9206H252.415V55.6964H253.001L252.545 54.3979H250.655L250.223 55.6964H251.116V55.9206H249.394V55.6964H249.981L251.74 50.4603H252.452L254.379 55.6964H254.802H254.807ZM252.461 54.1644L251.582 51.6561H251.568L250.735 54.1644H252.461Z" fill="#00599A"/>
<path d="M260.345 50.5023V51.9129H260.145L259.41 50.7265H258.768V55.6964H259.508V55.9206H256.808V55.6964H257.548V50.7265H256.925L256.194 51.9129H255.994V50.5023H260.345Z" fill="#00599A"/>
<path d="M87.8851 17.407L103.895 2.55944H108.987V0.976139H94.978V2.55944H101.163L81.7602 20.4522L93.7074 40.2319H88.0666V41.7544H107.53V40.2319H102.192L88.0014 17.4117H87.8804L87.8851 17.407ZM84.669 2.55944H90.4309V0.976139H71.9957V2.55944H77.0269L69.6873 40.2272H63.9859V41.7498H82.4816V40.2272H77.3899L84.6039 2.55944H84.6644H84.669ZM132.635 0.126104C129.419 0.126104 126.389 0.915422 123.48 2.49873C120.632 4.08203 117.9 6.45466 115.354 9.55588C110.988 14.913 108.745 20.5083 108.745 26.2904C108.745 31.0356 110.141 34.9308 112.869 37.976C115.596 41.0772 119.175 42.5998 123.541 42.5998C130.029 42.5998 135.851 39.4332 140.943 33.0439C145.308 27.6261 147.491 22.0916 147.491 16.4309C147.491 11.6856 146.095 7.72971 143.307 4.62381C140.519 1.52259 136.94 0 132.574 0M138.094 20.7558C137.429 24.4081 136.517 27.7522 135.367 30.7974C132.882 37.6117 129.242 41.0212 124.453 41.0212C119.664 41.0212 116.992 37.8546 116.992 31.4653C116.992 28.6069 117.295 25.4403 117.96 21.9094C118.626 18.3785 119.599 14.9737 120.869 11.5642C122.144 8.15473 123.657 5.66067 125.356 4.01665C127.115 2.37262 129.177 1.52259 131.662 1.52259C136.572 1.52259 139.002 4.74992 139.002 11.1392C139.002 13.9368 138.699 17.1034 138.034 20.7558M288.238 1.70941C293.027 1.70941 295.88 4.99746 296.788 11.6296H298.365L300.004 0.677225H299.157L296.187 3.47487C294.121 1.16296 291.333 0.00467052 287.935 0.00467052C284.538 0.00467052 281.81 1.10224 279.688 3.35343C277.566 5.54391 276.472 8.46298 276.472 11.9939C276.472 14.8523 277.198 17.1642 278.655 18.8082C279.749 20.0879 281.81 21.4844 284.78 23.007L289.932 25.6225C291.328 26.3511 292.478 27.3272 293.269 28.5415C294.056 29.7606 294.484 31.0356 294.484 32.4368C294.484 34.8094 293.576 36.8177 291.817 38.4617C290.058 40.1058 287.875 40.9558 285.268 40.9558C282.662 40.9558 280.298 40.045 278.599 38.2189C276.9 36.3927 275.751 33.6558 275.262 30.0034H273.321L271.804 41.6283H273.079L276.477 39.0129C278.418 41.4462 281.084 42.6652 284.663 42.6652C288.908 42.6652 292.245 41.3855 294.73 38.77C297.216 36.1545 298.43 32.8057 298.43 28.6676C298.43 25.9307 297.765 23.6188 296.49 21.6712C295.214 19.7236 293.153 18.0796 290.365 16.6831L284.724 13.8247C283.025 12.9747 281.876 12.2414 281.326 11.6343C280.54 10.7842 280.172 9.74737 280.172 8.40694C280.172 6.52005 280.959 4.93674 282.476 3.66169C283.993 2.38197 285.934 1.71408 288.298 1.71408M238.089 10.7749C238.089 4.20347 233.663 0.915422 224.871 0.915422H207.041V2.43801H212.072L204.793 40.1058H200.972V41.6283H217.406V40.1058H212.254L215.591 22.9463H217.895C221.413 22.9463 223.899 22.8855 225.416 22.7034C227.901 22.3998 230.023 21.8534 231.843 20.9379C235.967 18.9296 238.029 15.5201 238.029 10.7749M229.176 15.2166C228.571 16.8606 227.72 18.1963 226.631 19.2939C225.723 20.144 224.75 20.6951 223.722 20.8772C222.628 21.0594 221.115 21.1808 219.054 21.1808H216.084L219.542 2.49873H221.544C224.76 2.49873 227.003 2.98446 228.213 4.02132C229.488 4.99279 230.093 6.87968 230.093 9.62127C230.093 11.751 229.791 13.6379 229.186 15.2819M202.01 2.49873V0.915422H187.698L174.42 27.6915H173.876L171.088 0.915422H156.353V2.49873H161.384L154.044 40.1665H149.073V41.6891H161.081V40.1665H155.929L163.022 4.14275H163.627L167.509 41.6891H169.328L187.824 4.14275H188.49L181.518 40.1665H176.3V41.6891H194.312V40.1665H189.095L196.434 2.49873H202.015H202.01ZM259.982 0.0653873H257.86L232.392 40.1665H229.055V41.6891H240.211V40.1665H234.268L241.361 29.2141H253.248L253.429 40.1665H247.97V41.6891H266.284V40.1665H260.825L260.038 0.0653873H259.978H259.982ZM242.334 27.5701L252.824 11.1392L253.187 27.5701H242.273H242.334Z" fill="#00599A"/>
<path d="M333.304 9.39712L321.492 4.4884L309.68 9.39712L304.788 21.2509L309.68 33.1047L321.492 38.0134L333.304 33.1047L338.196 21.2509L333.304 9.39712Z" fill="#DCB62F"/>
<g style="mix-blend-mode:luminosity" opacity="0.81">
<path d="M333.332 9.41577L321.492 4.49304L309.652 9.41577L304.746 21.2976L309.652 33.1794L321.492 38.1021L333.332 33.1794L338.238 21.2976L333.332 9.41577Z" fill="url(#paint0_radial_9031_4797)"/>
<g opacity="0.44">
<path d="M321.492 21.2975V38.0927L333.327 33.1746L321.492 21.2975Z" fill="url(#paint1_linear_9031_4797)"/>
</g>
<g opacity="0.44">
<path d="M321.492 21.2975L333.327 9.42041L338.228 21.2975H321.492Z" fill="url(#paint2_linear_9031_4797)"/>
</g>
<g opacity="0.44">
<path d="M321.492 21.2976L309.656 9.4205L321.492 4.50244V21.2976Z" fill="url(#paint3_linear_9031_4797)"/>
</g>
<g opacity="0.44">
<path d="M321.492 21.2975H304.755L309.656 33.1746L321.492 21.2975Z" fill="url(#paint4_linear_9031_4797)"/>
</g>
<g opacity="0.44">
<path d="M321.492 21.2975V38.0927L333.327 33.1746L321.492 21.2975Z" fill="url(#paint5_linear_9031_4797)"/>
</g>
<g opacity="0.44">
<path d="M321.492 21.2975L333.327 9.42041L338.228 21.2975H321.492Z" fill="url(#paint6_linear_9031_4797)"/>
</g>
<g opacity="0.44">
<path d="M321.492 21.2976L309.656 9.4205L321.492 4.50244V21.2976Z" fill="url(#paint7_linear_9031_4797)"/>
</g>
<g opacity="0.44">
<path d="M321.492 21.2975H304.755L309.656 33.1746L321.492 21.2975Z" fill="url(#paint8_linear_9031_4797)"/>
</g>
<g opacity="0.44">
<path d="M321.492 21.2975L333.327 33.1746L338.228 21.2975H321.492Z" fill="url(#paint9_linear_9031_4797)"/>
</g>
<g opacity="0.44">
<path d="M321.492 21.2976V4.50244L333.327 9.4205L321.492 21.2976Z" fill="url(#paint10_linear_9031_4797)"/>
</g>
<g opacity="0.44">
<path d="M321.492 21.2975H304.755L309.656 9.42041L321.492 21.2975Z" fill="url(#paint11_linear_9031_4797)"/>
</g>
<g opacity="0.44">
<path d="M321.492 21.2975L309.656 33.1746L321.492 38.0927V21.2975Z" fill="url(#paint12_linear_9031_4797)"/>
</g>
</g>
<path d="M312.998 26.4959L311.69 25.9541L310.382 26.4959L309.838 27.8085L310.382 29.121L311.69 29.6628L312.998 29.121L313.538 27.8085L312.998 26.4959Z" fill="#00599A"/>
<path d="M316.977 17.8087H319.751L318.104 29.6158H315.33L316.977 17.8087ZM317.54 13.0868H320.528L320.105 16.1086H317.117L317.54 13.0868Z" fill="#00599A"/>
<path d="M329.637 29.6157H327.235L327.282 28.6723C327.282 28.6723 326.295 29.8072 324.717 29.8072C322.693 29.8072 321.282 28.3687 321.282 26.3604C321.282 26.1222 321.282 25.9821 321.329 25.557L321.846 21.6385C322.176 19.2051 324.196 17.6032 326.244 17.6032C327.752 17.6032 328.478 18.4999 328.478 18.4999L329.232 13.0914H331.936L329.632 29.6204L329.637 29.6157ZM324.061 25.4823C324.038 25.6458 324.014 25.9073 324.014 26.0708C324.014 26.8975 324.647 27.4626 325.448 27.4626C326.672 27.4626 327.379 26.5659 327.496 25.6925L327.989 22.0075C328.012 21.8907 328.036 21.5357 328.036 21.3442C328.036 20.5176 327.375 19.9291 326.481 19.9291C325.373 19.9291 324.694 20.8959 324.578 21.6992L324.061 25.4777V25.4823Z" fill="#00599A"/>
<path d="M38.5555 8.21545C38.3693 8.31354 38.1785 8.42565 38.5555 8.21545Z" fill="#231F20"/>
<path d="M59.4574 15.1605C58.8803 11.3354 56.9162 7.80448 53.9608 5.31042C50.9263 2.75097 47.0354 1.41987 43.0747 1.56933C38.7417 1.7328 34.511 3.8392 31.4812 6.89372C30.0617 8.32757 28.926 10.0136 27.8602 11.7184C26.7758 13.4511 25.8217 15.2586 24.9141 17.0895C24.7373 17.4444 24.5651 17.7994 24.3929 18.159C22.8291 16.5337 20.8929 15.3567 18.631 14.9364C16.3039 14.502 13.8233 14.8943 11.6591 15.8144C6.80476 17.8835 3.24898 22.2037 1.40592 27.0984L1.24303 27.061C0.880004 28.238 0.572828 29.4383 0.363391 30.6527C0.0469069 32.1846 -0.0927182 33.7445 0.0655236 35.3138C0.34012 38.0835 1.70845 40.9325 4.38925 42.0814C7.18641 43.2817 10.4722 42.6933 13.1484 41.4416C13.7302 41.1707 14.2933 40.8624 14.8379 40.5355C14.8797 40.5121 14.9216 40.4841 14.9635 40.4608C15.052 40.4094 15.1404 40.358 15.2288 40.302C17.4535 38.9755 19.4408 37.2101 21.0884 35.2391C21.3072 34.9916 21.5213 34.7394 21.7307 34.4825C21.8424 34.347 21.9401 34.1976 22.0192 34.0435C23.1642 32.4975 24.1322 30.8301 25.0165 29.1207C25.482 29.7232 25.9753 30.3117 26.5105 30.8768C29.1541 33.6465 32.8262 35.4866 36.6194 35.949C40.3288 36.4021 44.1684 35.7622 47.5381 34.1462C51.0287 32.4742 54.1563 29.9801 56.3484 26.7574C57.605 24.9033 58.5871 22.993 59.1502 20.8072C59.6203 18.995 59.7227 17.0194 59.4434 15.1699L59.4574 15.1605ZM8.08001 25.6178C8.578 24.8846 9.11789 24.184 9.71827 23.5301C9.88117 23.3573 10.0441 23.1845 10.2116 23.0164C10.2954 22.9323 10.3792 22.8529 10.4676 22.7688C10.6584 22.5913 10.6072 22.6287 10.5095 22.7128C10.8073 22.4372 11.1704 22.1897 11.4915 21.9608C11.8638 21.6946 12.2501 21.4471 12.6504 21.2229C12.7063 21.1902 12.7621 21.1575 12.8226 21.1295C12.9715 21.0594 13.1205 20.9847 13.2694 20.9193C13.8791 20.6484 14.5074 20.4242 15.1543 20.2561C15.7454 20.144 16.3458 20.0879 16.9509 20.0879C17.407 20.13 17.8584 20.214 18.3006 20.3308C18.7008 20.4849 19.0871 20.6718 19.4595 20.8866C19.7666 21.1061 20.0692 21.3443 20.3437 21.6012C20.4322 21.6853 20.5206 21.7693 20.6044 21.8534C20.623 21.8721 20.6509 21.9001 20.6788 21.9328C20.7021 21.9562 20.7207 21.9842 20.7347 21.9982C20.8324 22.115 20.9255 22.2317 21.0186 22.3531C21.3165 22.7455 21.5771 23.1565 21.8238 23.5815C21.121 25.0574 20.3949 26.5239 19.6084 27.9578C19.264 28.5883 18.901 29.2048 18.5147 29.812C18.1284 30.3818 17.7234 30.9329 17.2906 31.4607C16.7461 32.0912 16.1829 32.7077 15.5872 33.2868C15.4708 33.3989 15.3545 33.5157 15.2335 33.6325C15.2102 33.6511 15.1776 33.6792 15.1264 33.7259C15.0287 33.8099 14.9309 33.8987 14.8332 33.9827C14.4609 34.3003 14.0792 34.6039 13.6929 34.8982C13.4602 35.0663 13.2322 35.2391 12.9948 35.3979C12.6178 35.6501 12.2315 35.8883 11.8359 36.1078C11.7847 36.1359 11.7382 36.1639 11.687 36.1872C11.5334 36.262 11.3752 36.3414 11.2216 36.4114C10.5234 36.729 9.80205 36.9952 9.05738 37.1867C8.56404 37.2801 8.06604 37.3315 7.56339 37.3315C7.33534 37.3082 7.11194 37.2708 6.88854 37.2194C6.70703 37.1447 6.53017 37.0606 6.35796 36.9672C6.26953 36.8971 6.19041 36.8224 6.10664 36.7477C6.03682 36.6543 5.96701 36.5609 5.90185 36.4628C5.88324 36.4301 5.85066 36.3834 5.82273 36.332C5.79946 36.2806 5.77619 36.2339 5.76223 36.2012C5.66915 35.9724 5.59468 35.7389 5.52952 35.5053C5.40851 34.8234 5.36662 34.1322 5.37593 33.4363C5.42713 32.703 5.52487 31.9744 5.65984 31.2552C5.74827 30.8488 5.85531 30.4425 5.97632 30.0455C6.5069 28.4996 7.21898 27.0097 8.08001 25.6178ZM15.1357 33.7586C15.1637 33.7305 15.1962 33.7025 15.2335 33.6745C15.2195 33.6885 15.2055 33.7025 15.1869 33.7165C15.1683 33.7305 15.1497 33.7445 15.1357 33.7586ZM53.7979 20.2748C53.4256 21.3023 52.9276 22.2784 52.3551 23.2079C51.8571 23.9458 51.3126 24.6464 50.7215 25.3096C50.405 25.6599 50.0792 26.0008 49.7395 26.3278C49.679 26.3838 49.6231 26.4399 49.5626 26.4959C49.3997 26.636 49.2415 26.7761 49.0739 26.9116C48.3386 27.5141 47.5613 28.0652 46.7515 28.5509C46.5607 28.6677 46.3699 28.7798 46.1744 28.8872C46.1185 28.9199 46.0627 28.9479 46.0068 28.9806C45.5973 29.1861 45.1784 29.3776 44.7549 29.5504C43.9171 29.896 43.0514 30.1763 42.1718 30.3958C40.9198 30.6527 39.6446 30.7741 38.3647 30.7461C37.2803 30.6667 36.2098 30.4752 35.1673 30.1716C34.1713 29.8166 33.2172 29.3589 32.3189 28.7985C31.6301 28.3174 30.9832 27.7896 30.3828 27.2011C30.2199 27.0423 30.0617 26.8789 29.9081 26.7154C29.8476 26.6454 29.7871 26.58 29.7312 26.5099C29.3915 26.1036 29.0703 25.6832 28.7678 25.2442C28.4513 24.7865 28.1581 24.3194 27.8788 23.8337C27.823 23.7403 27.7718 23.6469 27.7206 23.5488C28.9726 20.8819 30.2292 18.2197 31.686 15.6603C32.0629 14.9971 32.4586 14.3479 32.8681 13.7033C33.394 12.914 33.9525 12.1481 34.5622 11.4195C34.8927 11.0271 35.2371 10.6442 35.6048 10.2799C35.6932 10.1911 35.8933 10.0136 35.9911 9.92956C36.0562 9.87352 36.1167 9.81747 36.1865 9.76609C36.6287 9.41581 37.0941 9.09354 37.5688 8.78996C37.8341 8.61715 38.1087 8.45835 38.3833 8.29955C38.509 8.22949 38.6393 8.16411 38.765 8.08938C38.6858 8.13608 38.6207 8.16878 38.5695 8.20147C38.6207 8.17345 38.6719 8.15009 38.7091 8.13141C39.5981 7.70172 40.5289 7.37012 41.4876 7.12725C42.4138 6.9451 43.3493 6.86103 44.2895 6.87504C45.1924 6.9451 46.086 7.10857 46.9563 7.36078C47.8592 7.68304 48.7249 8.10339 49.544 8.61248C50.1304 9.02348 50.6889 9.47652 51.2056 9.97627C51.3452 10.1117 51.4802 10.2472 51.6151 10.3919C51.6151 10.3919 51.6244 10.4013 51.6291 10.406C51.6477 10.4293 51.6663 10.448 51.6803 10.462C51.9409 10.7703 52.1876 11.0879 52.4203 11.4195C52.653 11.7511 52.8717 12.092 53.0719 12.4376C53.1045 12.4983 53.137 12.5544 53.1696 12.6151C53.2394 12.7552 53.3092 12.8953 53.3697 13.0401C53.6583 13.694 53.891 14.3712 54.0679 15.0625C54.2354 15.9125 54.3099 16.7765 54.3006 17.6406C54.2308 18.5327 54.0679 19.406 53.8165 20.2654L53.7979 20.2748Z" fill="url(#paint13_linear_9031_4797)"/>
<path d="M6.71167 27.8456L6.7489 28.1258C7.13985 27.2618 7.582 26.4211 8.08 25.6178C8.37786 25.1787 8.69435 24.7537 9.02479 24.3427C9.3692 23.4787 9.87185 22.2643 10.5793 20.6437C11.4636 18.6167 12.79 16.2113 13.3485 15.2212C13.0041 15.3146 12.4735 15.4827 12.1431 15.5995C9.90443 19.3219 8.13119 23.7402 6.71167 27.8456Z" fill="url(#paint14_linear_9031_4797)"/>
<path d="M6.2742 29.1487C12.3944 10.1583 19.9249 6.89831 21.6981 5.09082L18.6636 0.7052C8.16379 7.68763 2.59275 22.7034 1.24304 27.0563L6.2742 29.144V29.1487Z" fill="#00599A"/>
<path d="M1.25712 27.0657C1.25712 27.0657 1.24773 27.0937 1.24304 27.1077C1.24773 27.0937 1.25712 27.0797 1.26181 27.0657H1.25712Z" fill="#00599A"/>
<path d="M15.7222 2.97057L14.2421 1.61145C12.683 3.48433 5.52021 13.3251 1.53159 26.1597C3.09539 21.4705 7.6844 10.0277 15.7222 2.97057Z" fill="url(#paint15_linear_9031_4797)"/>
<path style="mix-blend-mode:multiply" d="M24.3882 18.1637L21.8191 23.5908L25.0258 29.1114L27.7113 23.5581L24.3882 18.1637Z" fill="url(#paint16_linear_9031_4797)"/>
<path d="M32.0815 41.9695V39.7322L31.6626 39.8583L31.5928 39.4753L32.2072 39.2744H32.519V41.9695H32.0815Z" fill="#00599A"/>
<path d="M35.1114 40.5496C35.1114 41.4697 34.7344 42.0022 34.0875 42.0022C33.8036 42.0022 33.5848 41.9088 33.3894 41.7593L33.5709 41.3903C33.7384 41.5258 33.8967 41.5958 34.0875 41.5958C34.4366 41.5958 34.646 41.2689 34.6553 40.7644C34.5343 40.9139 34.3714 41.0166 34.1108 41.0166C33.6593 41.0166 33.3102 40.7317 33.3102 40.1805V40.1619C33.3102 39.62 33.6779 39.2417 34.1852 39.2417C34.4598 39.2417 34.646 39.3211 34.7996 39.4752C34.9997 39.6668 35.1114 39.975 35.1114 40.5262V40.5496ZM34.6506 40.1479C34.6506 39.8302 34.4691 39.6341 34.1899 39.6341C33.9106 39.6341 33.7477 39.8396 33.7477 40.1525V40.1665C33.7477 40.4748 33.9292 40.657 34.1945 40.657C34.3295 40.657 34.4366 40.6056 34.5203 40.5309C34.6088 40.4421 34.6553 40.3207 34.6553 40.1665V40.1479H34.6506Z" fill="#00599A"/>
<path d="M37.5735 41.1008C37.5735 41.6426 37.2011 42.0116 36.6985 42.0116C36.4285 42.0116 36.2331 41.9275 36.0841 41.7781C35.8886 41.5725 35.7769 41.297 35.7769 40.7271V40.7038C35.7769 39.7976 36.14 39.2511 36.7962 39.2511C37.0708 39.2511 37.2709 39.3352 37.4571 39.4753L37.2756 39.8443C37.1267 39.7275 36.987 39.6528 36.7916 39.6528C36.4425 39.6528 36.2331 39.9938 36.2237 40.5029C36.3494 40.3674 36.5076 40.26 36.7776 40.26C37.2151 40.26 37.5735 40.5356 37.5735 41.0868V41.1008ZM37.1453 41.1055C37.1453 40.8112 36.9591 40.629 36.6938 40.629C36.5542 40.629 36.4425 40.6711 36.3634 40.7598C36.2796 40.8439 36.2377 40.9607 36.2377 41.1055V41.1241C36.2377 41.4324 36.4192 41.6239 36.6985 41.6239C36.9777 41.6239 37.1453 41.4231 37.1453 41.1195V41.1055Z" fill="#00599A"/>
<path d="M39.9006 41.1055C39.9006 41.652 39.5375 42.007 38.9976 42.007C38.6672 42.007 38.4112 41.8855 38.2111 41.6987L38.4112 41.3484C38.5927 41.5025 38.7696 41.5912 38.9837 41.5912C39.2722 41.5912 39.4631 41.4044 39.4631 41.1148V41.1008C39.4631 40.8112 39.2722 40.6524 38.9883 40.6524C38.8301 40.6524 38.7044 40.6944 38.5834 40.7505L38.3274 40.5777L38.4019 39.2838H39.7889V39.6855H38.7649L38.7277 40.3208C38.8301 40.2787 38.9325 40.26 39.0814 40.26C39.5282 40.26 39.8959 40.5216 39.8959 41.0868V41.1008L39.9006 41.1055Z" fill="#00599A"/>
<path d="M40.5707 41.012V40.5823H41.6319V41.012H40.5707Z" fill="#00599A"/>
<path d="M42.2509 41.9696V41.6193L43.0421 40.7365C43.3353 40.4282 43.447 40.2554 43.447 40.0452C43.447 39.8116 43.2841 39.6668 43.0654 39.6668C42.8466 39.6668 42.7023 39.7696 42.5255 39.9845L42.2928 39.6855C42.5069 39.4146 42.7256 39.2651 43.1073 39.2651C43.582 39.2651 43.8985 39.5547 43.8985 39.9985V40.0078C43.8985 40.3628 43.7263 40.587 43.3493 40.9513L42.8327 41.5679H43.9171V41.9696H42.2509Z" fill="#00599A"/>
<path d="M46.5793 40.6476C46.5793 41.465 46.1883 42.0115 45.574 42.0115C44.9596 42.0115 44.578 41.4697 44.578 40.6523V40.6102C44.578 39.7928 44.9689 39.2463 45.5786 39.2463C46.1883 39.2463 46.5793 39.7882 46.5793 40.6056V40.6476ZM46.1278 40.6149C46.1278 40.0077 45.9091 39.648 45.574 39.648C45.2389 39.648 45.0294 39.9984 45.0294 40.6102V40.6476C45.0294 41.2548 45.2435 41.6145 45.5786 41.6145C45.9137 41.6145 46.1278 41.2548 46.1278 40.6523V40.6149Z" fill="#00599A"/>
<path d="M47.175 41.9696V41.6193L47.9662 40.7365C48.2594 40.4282 48.3711 40.2554 48.3711 40.0452C48.3711 39.8116 48.2082 39.6668 47.9895 39.6668C47.7708 39.6668 47.6265 39.7696 47.4496 39.9845L47.2169 39.6855C47.431 39.4146 47.6497 39.2651 48.0314 39.2651C48.5061 39.2651 48.8226 39.5547 48.8226 39.9985V40.0078C48.8226 40.3628 48.6504 40.587 48.2734 40.9513L47.7568 41.5679H48.8412V41.9696H47.175Z" fill="#00599A"/>
<path d="M51.1683 41.1055C51.1683 41.652 50.8053 42.007 50.2654 42.007C49.9349 42.007 49.679 41.8855 49.4788 41.6987L49.679 41.3484C49.8605 41.5025 50.0373 41.5912 50.2514 41.5912C50.54 41.5912 50.7308 41.4044 50.7308 41.1148V41.1008C50.7308 40.8112 50.54 40.6524 50.2561 40.6524C50.0978 40.6524 49.9722 40.6944 49.8512 40.7505L49.5952 40.5777L49.6696 39.2838H51.0566V39.6855H50.0327L49.9954 40.3208C50.0978 40.2787 50.2002 40.26 50.3492 40.26C50.796 40.26 51.1636 40.5216 51.1636 41.0868V41.1008L51.1683 41.1055Z" fill="#00599A"/>
<defs>
<radialGradient id="paint0_radial_9031_4797" cx="0" cy="0" r="1" gradientUnits="userSpaceOnUse" gradientTransform="translate(321.492 21.2976) scale(16.7457 16.8045)">
<stop stop-color="white"/>
<stop offset="0.06" stop-color="#FCF5E4" stop-opacity="0.99"/>
<stop offset="0.19" stop-color="#F6E2B1" stop-opacity="0.96"/>
<stop offset="0.33" stop-color="#F1D386" stop-opacity="0.95"/>
<stop offset="0.46" stop-color="#EDC662" stop-opacity="0.93"/>
<stop offset="0.6" stop-color="#EABB46" stop-opacity="0.92"/>
<stop offset="0.73" stop-color="#E7B432" stop-opacity="0.91"/>
<stop offset="0.87" stop-color="#E6B026" stop-opacity="0.9"/>
<stop offset="1" stop-color="#E6AF23" stop-opacity="0.9"/>
</radialGradient>
<linearGradient id="paint1_linear_9031_4797" x1="321.245" y1="37.9479" x2="328.53" y2="25.3736" gradientUnits="userSpaceOnUse">
<stop stop-color="white"/>
<stop offset="0.06" stop-color="#FCF5E4" stop-opacity="0.99"/>
<stop offset="0.19" stop-color="#F6E2B1" stop-opacity="0.96"/>
<stop offset="0.33" stop-color="#F1D386" stop-opacity="0.95"/>
<stop offset="0.46" stop-color="#EDC662" stop-opacity="0.93"/>
<stop offset="0.6" stop-color="#EABB46" stop-opacity="0.92"/>
<stop offset="0.73" stop-color="#E7B432" stop-opacity="0.91"/>
<stop offset="0.87" stop-color="#E6B026" stop-opacity="0.9"/>
<stop offset="1" stop-color="#E6AF23" stop-opacity="0.9"/>
</linearGradient>
<linearGradient id="paint2_linear_9031_4797" x1="330.111" y1="22.7314" x2="327.923" y2="10.3758" gradientUnits="userSpaceOnUse">
<stop stop-color="white"/>
<stop offset="0.06" stop-color="#FCF5E4" stop-opacity="0.99"/>
<stop offset="0.19" stop-color="#F6E2B1" stop-opacity="0.96"/>
<stop offset="0.33" stop-color="#F1D386" stop-opacity="0.95"/>
<stop offset="0.46" stop-color="#EDC662" stop-opacity="0.93"/>
<stop offset="0.6" stop-color="#EABB46" stop-opacity="0.92"/>
<stop offset="0.73" stop-color="#E7B432" stop-opacity="0.91"/>
<stop offset="0.87" stop-color="#E6B026" stop-opacity="0.9"/>
<stop offset="1" stop-color="#E6AF23" stop-opacity="0.9"/>
</linearGradient>
<linearGradient id="paint3_linear_9031_4797" x1="309.656" y1="12.9" x2="321.492" y2="12.9" gradientUnits="userSpaceOnUse">
<stop stop-color="white"/>
<stop offset="0.06" stop-color="#FCF5E4" stop-opacity="0.99"/>
<stop offset="0.19" stop-color="#F6E2B1" stop-opacity="0.96"/>
<stop offset="0.33" stop-color="#F1D386" stop-opacity="0.95"/>
<stop offset="0.46" stop-color="#EDC662" stop-opacity="0.93"/>
<stop offset="0.6" stop-color="#EABB46" stop-opacity="0.92"/>
<stop offset="0.73" stop-color="#E7B432" stop-opacity="0.91"/>
<stop offset="0.87" stop-color="#E6B026" stop-opacity="0.9"/>
<stop offset="1" stop-color="#E6AF23" stop-opacity="0.9"/>
</linearGradient>
<linearGradient id="paint4_linear_9031_4797" x1="304.755" y1="27.2337" x2="321.492" y2="27.2337" gradientUnits="userSpaceOnUse">
<stop stop-color="white"/>
<stop offset="0.06" stop-color="#FCF5E4" stop-opacity="0.99"/>
<stop offset="0.19" stop-color="#F6E2B1" stop-opacity="0.96"/>
<stop offset="0.33" stop-color="#F1D386" stop-opacity="0.95"/>
<stop offset="0.46" stop-color="#EDC662" stop-opacity="0.93"/>
<stop offset="0.6" stop-color="#EABB46" stop-opacity="0.92"/>
<stop offset="0.73" stop-color="#E7B432" stop-opacity="0.91"/>
<stop offset="0.87" stop-color="#E6B026" stop-opacity="0.9"/>
<stop offset="1" stop-color="#E6AF23" stop-opacity="0.9"/>
</linearGradient>
<linearGradient id="paint5_linear_9031_4797" x1="321.245" y1="37.9479" x2="328.53" y2="25.3736" gradientUnits="userSpaceOnUse">
<stop stop-color="white"/>
<stop offset="0.06" stop-color="#FCF5E4" stop-opacity="0.99"/>
<stop offset="0.19" stop-color="#F6E2B1" stop-opacity="0.96"/>
<stop offset="0.33" stop-color="#F1D386" stop-opacity="0.95"/>
<stop offset="0.46" stop-color="#EDC662" stop-opacity="0.93"/>
<stop offset="0.6" stop-color="#EABB46" stop-opacity="0.92"/>
<stop offset="0.73" stop-color="#E7B432" stop-opacity="0.91"/>
<stop offset="0.87" stop-color="#E6B026" stop-opacity="0.9"/>
<stop offset="1" stop-color="#E6AF23" stop-opacity="0.9"/>
</linearGradient>
<linearGradient id="paint6_linear_9031_4797" x1="330.111" y1="22.7314" x2="327.923" y2="10.3758" gradientUnits="userSpaceOnUse">
<stop stop-color="white"/>
<stop offset="0.06" stop-color="#FCF5E4" stop-opacity="0.99"/>
<stop offset="0.19" stop-color="#F6E2B1" stop-opacity="0.96"/>
<stop offset="0.33" stop-color="#F1D386" stop-opacity="0.95"/>
<stop offset="0.46" stop-color="#EDC662" stop-opacity="0.93"/>
<stop offset="0.6" stop-color="#EABB46" stop-opacity="0.92"/>
<stop offset="0.73" stop-color="#E7B432" stop-opacity="0.91"/>
<stop offset="0.87" stop-color="#E6B026" stop-opacity="0.9"/>
<stop offset="1" stop-color="#E6AF23" stop-opacity="0.9"/>
</linearGradient>
<linearGradient id="paint7_linear_9031_4797" x1="309.656" y1="12.9" x2="321.492" y2="12.9" gradientUnits="userSpaceOnUse">
<stop stop-color="white"/>
<stop offset="0.06" stop-color="#FCF5E4" stop-opacity="0.99"/>
<stop offset="0.19" stop-color="#F6E2B1" stop-opacity="0.96"/>
<stop offset="0.33" stop-color="#F1D386" stop-opacity="0.95"/>
<stop offset="0.46" stop-color="#EDC662" stop-opacity="0.93"/>
<stop offset="0.6" stop-color="#EABB46" stop-opacity="0.92"/>
<stop offset="0.73" stop-color="#E7B432" stop-opacity="0.91"/>
<stop offset="0.87" stop-color="#E6B026" stop-opacity="0.9"/>
<stop offset="1" stop-color="#E6AF23" stop-opacity="0.9"/>
</linearGradient>
<linearGradient id="paint8_linear_9031_4797" x1="304.755" y1="27.2337" x2="321.492" y2="27.2337" gradientUnits="userSpaceOnUse">
<stop stop-color="white"/>
<stop offset="0.06" stop-color="#FCF5E4" stop-opacity="0.99"/>
<stop offset="0.19" stop-color="#F6E2B1" stop-opacity="0.96"/>
<stop offset="0.33" stop-color="#F1D386" stop-opacity="0.95"/>
<stop offset="0.46" stop-color="#EDC662" stop-opacity="0.93"/>
<stop offset="0.6" stop-color="#EABB46" stop-opacity="0.92"/>
<stop offset="0.73" stop-color="#E7B432" stop-opacity="0.91"/>
<stop offset="0.87" stop-color="#E6B026" stop-opacity="0.9"/>
<stop offset="1" stop-color="#E6AF23" stop-opacity="0.9"/>
</linearGradient>
<linearGradient id="paint9_linear_9031_4797" x1="333.048" y1="33.2447" x2="329.271" y2="19.2023" gradientUnits="userSpaceOnUse">
<stop stop-color="white"/>
<stop offset="0.06" stop-color="#FCF5E4" stop-opacity="0.99"/>
<stop offset="0.19" stop-color="#F6E2B1" stop-opacity="0.96"/>
<stop offset="0.33" stop-color="#F1D386" stop-opacity="0.95"/>
<stop offset="0.46" stop-color="#EDC662" stop-opacity="0.93"/>
<stop offset="0.6" stop-color="#EABB46" stop-opacity="0.92"/>
<stop offset="0.73" stop-color="#E7B432" stop-opacity="0.91"/>
<stop offset="0.87" stop-color="#E6B026" stop-opacity="0.9"/>
<stop offset="1" stop-color="#E6AF23" stop-opacity="0.9"/>
</linearGradient>
<linearGradient id="paint10_linear_9031_4797" x1="328.598" y1="16.1905" x2="318.33" y2="9.02804" gradientUnits="userSpaceOnUse">
<stop stop-color="white"/>
<stop offset="0.06" stop-color="#FCF5E4" stop-opacity="0.99"/>
<stop offset="0.19" stop-color="#F6E2B1" stop-opacity="0.96"/>
<stop offset="0.33" stop-color="#F1D386" stop-opacity="0.95"/>
<stop offset="0.46" stop-color="#EDC662" stop-opacity="0.93"/>
<stop offset="0.6" stop-color="#EABB46" stop-opacity="0.92"/>
<stop offset="0.73" stop-color="#E7B432" stop-opacity="0.91"/>
<stop offset="0.87" stop-color="#E6B026" stop-opacity="0.9"/>
<stop offset="1" stop-color="#E6AF23" stop-opacity="0.9"/>
</linearGradient>
<linearGradient id="paint11_linear_9031_4797" x1="307.203" y1="23.7565" x2="315.602" y2="15.3876" gradientUnits="userSpaceOnUse">
<stop stop-color="white"/>
<stop offset="0.06" stop-color="#FCF5E4" stop-opacity="0.99"/>
<stop offset="0.19" stop-color="#F6E2B1" stop-opacity="0.96"/>
<stop offset="0.33" stop-color="#F1D386" stop-opacity="0.95"/>
<stop offset="0.46" stop-color="#EDC662" stop-opacity="0.93"/>
<stop offset="0.6" stop-color="#EABB46" stop-opacity="0.92"/>
<stop offset="0.73" stop-color="#E7B432" stop-opacity="0.91"/>
<stop offset="0.87" stop-color="#E6B026" stop-opacity="0.9"/>
<stop offset="1" stop-color="#E6AF23" stop-opacity="0.9"/>
</linearGradient>
<linearGradient id="paint12_linear_9031_4797" x1="313.838" y1="37.3696" x2="325.714" y2="25.5353" gradientUnits="userSpaceOnUse">
<stop stop-color="white"/>
<stop offset="0.06" stop-color="#FCF5E4" stop-opacity="0.99"/>
<stop offset="0.19" stop-color="#F6E2B1" stop-opacity="0.96"/>
<stop offset="0.33" stop-color="#F1D386" stop-opacity="0.95"/>
<stop offset="0.46" stop-color="#EDC662" stop-opacity="0.93"/>
<stop offset="0.6" stop-color="#EABB46" stop-opacity="0.92"/>
<stop offset="0.73" stop-color="#E7B432" stop-opacity="0.91"/>
<stop offset="0.87" stop-color="#E6B026" stop-opacity="0.9"/>
<stop offset="1" stop-color="#E6AF23" stop-opacity="0.9"/>
</linearGradient>
<linearGradient id="paint13_linear_9031_4797" x1="2.62295" y1="17.9115" x2="57.9025" y2="27.8627" gradientUnits="userSpaceOnUse">
<stop stop-color="#00599A"/>
<stop offset="0.42" stop-color="#00599A"/>
<stop offset="0.69" stop-color="#A6A44B"/>
<stop offset="0.8" stop-color="#F3C727"/>
<stop offset="1" stop-color="#F3C727"/>
</linearGradient>
<linearGradient id="paint14_linear_9031_4797" x1="6.71167" y1="21.6712" x2="13.3532" y2="21.6712" gradientUnits="userSpaceOnUse">
<stop stop-color="#034694"/>
<stop offset="0.37" stop-color="#054491"/>
<stop offset="0.64" stop-color="#0B4087"/>
<stop offset="0.87" stop-color="#173878"/>
<stop offset="1" stop-color="#20336C"/>
</linearGradient>
<linearGradient id="paint15_linear_9031_4797" x1="1.53159" y1="13.8856" x2="15.7222" y2="13.8856" gradientUnits="userSpaceOnUse">
<stop stop-color="#034694"/>
<stop offset="0.37" stop-color="#054491"/>
<stop offset="0.64" stop-color="#0B4087"/>
<stop offset="0.87" stop-color="#173878"/>
<stop offset="1" stop-color="#20336C"/>
</linearGradient>
<linearGradient id="paint16_linear_9031_4797" x1="21.8191" y1="23.6375" x2="27.7113" y2="23.6375" gradientUnits="userSpaceOnUse">
<stop offset="0.01" stop-color="#00A9DC"/>
<stop offset="0.42" stop-color="#A7DFF9"/>
<stop offset="0.43" stop-color="#ABE1FA"/>
<stop offset="0.8" stop-color="#005BAA"/>
<stop offset="1" stop-color="#005BAA"/>
</linearGradient>
</defs>
</svg>
